<?xml version="1.0" encoding="utf-8"?>
<!-- Generator: Adobe Illustrator 23.0.1, SVG Export Plug-In . SVG Version: 6.00 Build 0)  -->
<svg version="1.1" xmlns="http://www.w3.org/2000/svg" xmlns:xlink="http://www.w3.org/1999/xlink" x="0px" y="0px"
	 width="64.001px" height="64px" viewBox="0 0 64.001 64" enable-background="new 0 0 64.001 64" xml:space="preserve">
<g id="Asset">
	<g>
		<rect fill="none" width="64.001" height="64"/>
	</g>
</g>
<g id="Icons">
	<g>
		<path fill="#A6A6AE" d="M50.027,60c0,1.1-0.9,2-2,2h-32c-1.101,0-2-0.9-2-2V37.001c0-1.1,0.899-2,2-2.001h32
			c1.1,0.001,2,0.901,2,2.001V60z"/>
		<path opacity="0.3" fill="#55565A" d="M20.027,35v21.596C20.026,57.367,20.659,58,21.433,58h21.189
			c0.773,0,1.405-0.633,1.406-1.404V35H20.027z"/>
		<linearGradient id="SVGID_1_" gradientUnits="userSpaceOnUse" x1="32.0039" y1="58.3082" x2="32.0039" y2="-0.0518">
			<stop  offset="0" style="stop-color:#595959"/>
			<stop  offset="1" style="stop-color:#7A7A7A"/>
		</linearGradient>
		<path fill="url(#SVGID_1_)" d="M22.004,2c-1.1,0-2,0.9-2,2v50c0,1.1,0.9,2,2,2h20c1.101,0,2-0.9,2-2V4c0-1.1-0.899-2-2-2H22.004z"
			/>
		
			<linearGradient id="SVGID_2_" gradientUnits="userSpaceOnUse" x1="-50.154" y1="-469.0114" x2="-49.154" y2="-469.0114" gradientTransform="matrix(16 0 0 -16 826.4928 -7486.6816)">
			<stop  offset="0" style="stop-color:#53BAF2"/>
			<stop  offset="1" style="stop-color:#7ECBF5"/>
		</linearGradient>
		<rect x="24.029" y="8" fill="url(#SVGID_2_)" width="15.999" height="19"/>
		
			<linearGradient id="SVGID_3_" gradientUnits="userSpaceOnUse" x1="-83.2254" y1="-393.6117" x2="-82.2541" y2="-393.6117" gradientTransform="matrix(0 -14.4136 -14.4136 0 -5642.3608 -1172.642)">
			<stop  offset="0" style="stop-color:#7ECBF5"/>
			<stop  offset="1" style="stop-color:#7ECBF5"/>
		</linearGradient>
		<polygon fill="url(#SVGID_3_)" points="24.029,8 24.001,22 38.001,8 		"/>
		<path fill="#55565A" d="M35.029,6h-6c-0.552,0-1-0.447-1-1s0.448-1,1-1h6c0.552,0,1,0.447,1,1S35.581,6,35.029,6"/>
		<rect x="24.029" y="30" opacity="0.3" fill="#A6A6AE" width="16" height="6"/>
		<path fill="#A6A6AE" d="M36.029,30h-8v6h8V30z M27.529,39h-3c-0.274,0-0.5,0.225-0.5,0.5v2c0,0.275,0.226,0.5,0.5,0.5h3
			c0.275,0,0.5-0.225,0.5-0.5v-2C28.029,39.225,27.805,39,27.529,39 M33.529,39h-3c-0.274,0-0.5,0.225-0.5,0.5v2
			c0,0.275,0.226,0.5,0.5,0.5h3c0.275,0,0.5-0.225,0.5-0.5v-2C34.029,39.225,33.805,39,33.529,39 M39.529,39h-3
			c-0.274,0-0.5,0.225-0.5,0.5v2c0,0.275,0.226,0.5,0.5,0.5h3c0.275,0,0.5-0.225,0.5-0.5v-2C40.029,39.225,39.805,39,39.529,39
			 M27.529,44h-3c-0.274,0-0.5,0.225-0.5,0.5v2c0,0.275,0.226,0.5,0.5,0.5h3c0.275,0,0.5-0.225,0.5-0.5v-2
			C28.029,44.225,27.805,44,27.529,44 M33.529,44h-3c-0.274,0-0.5,0.225-0.5,0.5v2c0,0.275,0.226,0.5,0.5,0.5h3
			c0.275,0,0.5-0.225,0.5-0.5v-2C34.029,44.225,33.805,44,33.529,44 M39.529,44h-3c-0.274,0-0.5,0.225-0.5,0.5v2
			c0,0.275,0.226,0.5,0.5,0.5h3c0.275,0,0.5-0.225,0.5-0.5v-2C40.029,44.225,39.805,44,39.529,44 M27.529,49h-3
			c-0.274,0-0.5,0.225-0.5,0.5v2c0,0.275,0.226,0.5,0.5,0.5h3c0.275,0,0.5-0.225,0.5-0.5v-2C28.029,49.225,27.805,49,27.529,49
			 M33.529,49h-3c-0.274,0-0.5,0.225-0.5,0.5v2c0,0.275,0.226,0.5,0.5,0.5h3c0.275,0,0.5-0.225,0.5-0.5v-2
			C34.029,49.225,33.805,49,33.529,49 M39.529,49h-3c-0.274,0-0.5,0.225-0.5,0.5v2c0,0.275,0.226,0.5,0.5,0.5h3
			c0.275,0,0.5-0.225,0.5-0.5v-2C40.029,49.225,39.805,49,39.529,49"/>
	</g>
</g>
</svg>
