<svg xmlns="http://www.w3.org/2000/svg" width="64.001" height="64">
  <path fill="none" d="M0 0H64.001V64H0z"/>
  <linearGradient id="a" gradientUnits="userSpaceOnUse" x1="32.001" y1="61" x2="32.001" y2="3">
    <stop offset="0" stop-color="#e4dddb"/>
    <stop offset="1" stop-color="#efebe9"/>
  </linearGradient>
  <path fill="url(#a)" d="M55.001,59.331c0,0.918-0.751,1.669-1.669,1.669H10.67c-0.918,0-1.669-0.751-1.669-1.669V4.669 C9.001,3.751,9.752,3,10.67,3h42.662c0.918,0,1.669,0.751,1.669,1.669V59.331z"/>
  <path fill="#948983" d="M39.001 15H47.001V17H39.001zM39.001 23H47.001V25H39.001zM39.001 31H47.001V33H39.001zM17.001 15H25.001V17H17.001zM17.001 23H25.001V25H17.001zM17.001 31H25.001V33H17.001z"/>
  <path fill="#FFF" d="M32.001,35.876c-1.933,0-3.5-1.567-3.5-3.5V13.183c0-1.933,1.567-3.5,3.5-3.5s3.5,1.567,3.5,3.5v19.193 C35.501,34.309,33.934,35.876,32.001,35.876z"/>
  <path fill="#A6A6AE" d="M32,55.129c-3.958,0-7.179-3.22-7.179-7.177c0-3.961,3.221-7.183,7.179-7.183 c3.959,0,7.181,3.222,7.181,7.183C39.181,51.909,35.959,55.129,32,55.129z"/>
  <path fill="#B9ADA7" d="M32,41.27c3.684,0,6.681,2.998,6.681,6.683c0,3.682-2.997,6.677-6.681,6.677 c-3.683,0-6.679-2.995-6.679-6.677C25.321,44.267,28.317,41.27,32,41.27 M32,40.27c-4.24,0-7.679,3.437-7.679,7.683 c0,4.238,3.44,7.677,7.679,7.677c4.241,0,7.681-3.439,7.681-7.677C39.681,43.706,36.241,40.27,32,40.27L32,40.27z"/>
  <linearGradient id="b" gradientUnits="userSpaceOnUse" x1="32.001" y1="46.2843" x2="32.001" y2="25">
    <stop offset=".2796" stop-color="#ff9a1e"/>
    <stop offset="1" stop-color="#ffb356"/>
  </linearGradient>
  <path fill="url(#b)" d="M28.501 25H35.501000000000005V46.284H28.501z"/>
  <linearGradient id="c" gradientUnits="userSpaceOnUse" x1="32.001" y1="54.4815" x2="32.001" y2="39.1221">
    <stop offset="0" stop-color="#ff9a1e"/>
    <stop offset="1" stop-color="#ff9a1e"/>
  </linearGradient>
  <path fill="url(#c)" d="M39.681,46.805c0,4.239-3.44,7.677-7.681,7.677c-4.24,0-7.679-3.438-7.679-7.677 c0-4.246,3.439-7.683,7.679-7.683C36.241,39.122,39.681,42.559,39.681,46.805z"/>
  <path fill="#FFD7A5" d="M26.227,46.727c0-3.193,2.585-5.776,5.773-5.776c3.189,0,5.775,2.583,5.775,5.776H26.227z"/>
</svg>
