<?xml version="1.0" encoding="utf-8"?>
<!-- Generator: Adobe Illustrator 23.0.1, SVG Export Plug-In . SVG Version: 6.00 Build 0)  -->
<svg version="1.1" xmlns="http://www.w3.org/2000/svg" xmlns:xlink="http://www.w3.org/1999/xlink" x="0px" y="0px"
	 width="64.001px" height="64px" viewBox="0 0 64.001 64" enable-background="new 0 0 64.001 64" xml:space="preserve">
<g id="Asset">
	<g>
		<rect fill="none" width="64.001" height="64"/>
	</g>
</g>
<g id="Icons">
	<path fill='#737373' d="M9.001,33.121V58c0,1.1,0.9,2,2,2h42c1.1,0,2-0.9,2-2V33.121l-23-23L9.001,33.121z M34.501,52h-5v-5h5V52z
		 M37.82,45.147c-1.531-1.412-3.568-2.282-5.809-2.282c-2.243,0-4.282,0.872-5.813,2.286l-2.175-2.336
		c2.1-1.944,4.907-3.136,7.988-3.136c3.079,0,5.885,1.19,7.985,3.133L37.82,45.147z M41.804,40.871
		c-2.574-2.385-6.015-3.846-9.793-3.846c-3.779,0-7.221,1.462-9.795,3.849l-2.169-2.33c3.144-2.916,7.348-4.704,11.964-4.704
		c4.615,0,8.82,1.787,11.963,4.703L41.804,40.871z M47.952,34.273l-2.17,2.329c-3.618-3.358-8.458-5.417-13.771-5.417
		c-5.314,0-10.154,2.059-13.772,5.417l-2.169-2.33C20.257,30.384,25.859,28,32.011,28S43.765,30.384,47.952,34.273z M61.061,30.939
		L32.001,1.879L2.94,30.939c-0.586,0.586-0.586,1.535,0,2.121c0.586,0.586,1.535,0.586,2.121,0L32.001,6L58.94,33.06
		c0.293,0.293,0.677,0.439,1.061,0.439c0.384,0,0.768-0.146,1.06-0.439C61.647,32.474,61.647,31.525,61.061,30.939z"/>
</g>
</svg>
