<svg xmlns="http://www.w3.org/2000/svg" width="48" height="48" viewBox="0 0 48 48">
    <g fill="none" fill-rule="evenodd">
        <g fill="#FFF">
            <g>
                <g>
                    <path d="M16 26c2.8 0 5 2.2 5 5v8c0 2.8-2.2 5-5 5H8c-2.8 0-5-2.2-5-5v-8c0-2.8 2.2-5 5-5zm22 0c2.8 0 5 2.2 5 5v8c0 2.8-2.2 5-5 5h-8c-2.8 0-5-2.2-5-5v-8c0-2.8 2.2-5 5-5zm-22 3H8c-1.1 0-2 .9-2 2v8c0 1.1.9 2 2 2h8c1.1 0 2-.9 2-2v-8c0-1.1-.9-2-2-2zm22 0h-8c-1.1 0-2 .9-2 2v8c0 1.1.9 2 2 2h8c1.1 0 2-.9 2-2v-8c0-1.1-.9-2-2-2zM16 4c2.8 0 5 2.2 5 5v8c0 2.8-2.2 5-5 5H8c-2.8 0-5-2.2-5-5V9c0-2.8 2.2-5 5-5zm22 0c2.8 0 5 2.2 5 5v8c0 2.8-2.2 5-5 5h-8c-2.8 0-5-2.2-5-5V9c0-2.8 2.2-5 5-5zM16 7H8c-1.1 0-2 .9-2 2v8c0 1.1.9 2 2 2h8c1.1 0 2-.9 2-2V9c0-1.1-.9-2-2-2zm22 0h-8c-1.1 0-2 .9-2 2v8c0 1.1.9 2 2 2h8c1.1 0 2-.9 2-2V9c0-1.1-.9-2-2-2z" transform="translate(-123 -353) translate(123 353)"/>
                </g>
            </g>
        </g>
    </g>
</svg>
