<svg xmlns="http://www.w3.org/2000/svg" width="48" height="48" viewBox="0 0 48 48">
    <g fill="none" fill-rule="evenodd" opacity=".6">
        <g fill="#FFF">
            <g>
                <g>
                    <path d="M37.66 13c1.46 0 2.74.97 3.13 2.37l.58 2.06c2.13.87 3.63 2.96 3.63 5.4V27h2v5h-2v5.17c0 2.44-1.5 4.53-3.62 5.4l-.58 2.06c-.4 1.4-1.68 2.37-3.13 2.37h-8.33c-1.46 0-2.74-.97-3.13-2.37l-.58-2.06C23.5 41.7 22 39.61 22 37.17V22.83c0-2.44 1.5-4.53 3.62-5.4l.58-2.06c.4-1.4 1.68-2.37 3.13-2.37zM21.8 1C25.22 1 28 3.78 28 7.2v2.97c-1.14.25-2.17.81-3 1.61V7.2C25 5.44 23.56 4 21.8 4H19v3h-7V4H9.2C7.44 4 6 5.44 6 7.2v28.6C6 37.56 7.44 39 9.2 39h10c.23 1.09.66 2.1 1.25 3H9.2C5.78 42 3 39.22 3 35.8V7.2C3 3.78 5.78 1 9.2 1zm17.37 19H27.83C26.27 20 25 21.27 25 22.83v14.34c0 1.56 1.27 2.83 2.83 2.83h11.34c1.56 0 2.83-1.27 2.83-2.83V22.83c0-1.56-1.27-2.83-2.83-2.83zM15.5 32c1.38 0 2.5 1.12 2.5 2.5S16.88 37 15.5 37 13 35.88 13 34.5s1.12-2.5 2.5-2.5z" transform="translate(-123 -641) translate(123 353) translate(0 288)"/>
                </g>
            </g>
        </g>
    </g>
</svg>
