<svg xmlns="http://www.w3.org/2000/svg" width="36" height="36" viewBox="0 0 36 36">
    <g fill="none" fill-rule="evenodd">
        <g fill="#FCFCFC">
            <g>
                <path d="M58.427 28.771l-5.017-5.016c-.235-.236-.53-.355-.825-.355-.295 0-.59.118-.826.355L28.152 47.36l1.24 1.24 23.193-23.194 4.19 4.19-23.193 23.194 1.239 1.24 23.606-23.607c.472-.473.472-1.24 0-1.653zm-32.045 20.36l6.669 6.67-8.277 2.877c-.12.049-.247.073-.375.073s-.256-.024-.376-.073c-.12-.049-.233-.122-.33-.22-.098-.097-.171-.21-.22-.33-.049-.12-.073-.248-.073-.376s.024-.256.073-.376l2.91-8.244z" transform="translate(-1654 -277) translate(1631 254)"/>
            </g>
        </g>
    </g>
</svg>
