<svg xmlns="http://www.w3.org/2000/svg" width="48" height="48" viewBox="0 0 48 48">
    <defs>
        <filter id="l3c5vu6ura">
            <feColorMatrix in="SourceGraphic" values="0 0 0 0 0.988235 0 0 0 0 0.988235 0 0 0 0 0.988235 0 0 0 1.000000 0"/>
        </filter>
    </defs>
    <g fill="none" fill-rule="evenodd">
        <g>
            <g>
                <path d="M0 0H48V48H0z" transform="translate(-105 -553) translate(105 553)"/>
                <g filter="url(#l3c5vu6ura)" opacity=".6" transform="translate(-105 -553) translate(105 553)">
                    <g fill="#000" fill-rule="nonzero">
                        <g>
                            <path d="M3.274 10.208H31.65c.595 0 1.076.482 1.076 1.077v22.391c0 .596-.481 1.077-1.076 1.077H3.274V10.208zM31.65 38.026c2.402 0 4.349-1.947 4.349-4.35v-22.39c0-2.403-1.947-4.35-4.35-4.35H1.638c-.903 0-1.636.732-1.636 1.636V36.39c0 .904.733 1.637 1.636 1.637h30.014z" transform="translate(6 5)"/>
                            <path d="M29.455 6.936H14.046l13.225-3.55c1.122-.371 2.184.394 2.184 1.48v2.07zm1.636 3.272c.904 0 1.636-.732 1.636-1.636V4.866c0-3.32-3.25-5.663-6.399-4.612L1.213 6.992c-1.847.496-1.488 3.216.424 3.216h29.454zM18.937 20.713c.238.483.699.817 1.232.895l2.097.305-1.517 1.48c-.385.375-.561.917-.47 1.447l.358 2.087-1.875-.986c-.477-.25-1.046-.25-1.523 0l-1.875.986.358-2.087c.091-.53-.085-1.072-.47-1.448l-1.517-1.479 2.097-.305c.533-.078.994-.412 1.232-.895l.937-1.898.936 1.898zm-8.953-1.561c-1.341.195-1.877 1.844-.907 2.79l3.274 3.193-.772 4.506c-.23 1.337 1.173 2.356 2.374 1.725L18 29.238l4.047 2.128c1.2.631 2.604-.388 2.374-1.725l-.772-4.506 3.274-3.193c.97-.946.435-2.595-.907-2.79l-4.526-.659-2.023-4.1c-.6-1.216-2.335-1.216-2.935 0l-2.023 4.1-4.526.659z" transform="translate(6 5)"/>
                        </g>
                    </g>
                </g>
            </g>
        </g>
    </g>
</svg>
