<svg xmlns="http://www.w3.org/2000/svg" width="48" height="48" viewBox="0 0 48 48">
    <g fill="none" fill-rule="evenodd" opacity=".6">
        <g fill="#FCFCFC">
            <g>
                <g>
                    <path d="M38 24.2l3 3V38c0 3.3-2.7 6-6 6H13c-3.3 0-6-2.7-6-6V27.2l3-3V38c0 1.7 1.3 3 3 3h22c1.7 0 3-1.3 3-3V24.2zm-8.6 5c.2-.6 1-1 1.6-.7.6.2 1 1 .7 1.6-1.5 3.6-5 6-8.9 6-1.4 0-2.7-.3-3.9-.8-.6-.2-.9-1-.6-1.6.2-.6 1-.9 1.6-.6 1 .4 1.9.7 2.9.6 3 0 5.5-1.8 6.6-4.5zM24 1.7l23.1 23.2L45 27 24 6 3 27 .9 24.9 24 1.7zM18.6 21c1.215 0 2.2 1.209 2.2 2.7s-.985 2.7-2.2 2.7c-1.215 0-2.2-1.209-2.2-2.7s.985-2.7 2.2-2.7zm11.5 1.5c.6 0 1.2.6 1.2 1.2s-.5 1.2-1.2 1.2h-3.5c-.6 0-1.2-.6-1.2-1.2s.5-1.2 1.2-1.2z" transform="translate(-123 -737) translate(123 353) translate(0 384)"/>
                </g>
            </g>
        </g>
    </g>
</svg>
