<svg xmlns="http://www.w3.org/2000/svg" width="44" height="44" viewBox="0 0 44 44">
    <defs>
        <filter id="fnz9lkippa">
            <feColorMatrix in="SourceGraphic" values="0 0 0 0 0.988235 0 0 0 0 0.988235 0 0 0 0 0.988235 0 0 0 1.000000 0"/>
        </filter>
    </defs>
    <g fill="none" fill-rule="evenodd" opacity=".6">
        <g>
            <g>
                <g filter="url(#fnz9lkippa)" transform="translate(-126 -546) translate(123 353) translate(0 192)">
                    <path fill="#262626" fill-rule="nonzero" d="M24.656 20.17L3.668 41.16c-.88.878-.88 2.303 0 3.18.438.44 1.014.66 1.59.66.575 0 1.152-.22 1.591-.66l20.989-20.988-.435-2.748-2.747-.434zm21.64.49l-6.868-6.867 4.328-8.572c.142-.278.087-.616-.134-.837-.221-.22-.559-.274-.837-.133l-8.571 4.327-6.868-6.866c-.221-.222-.559-.275-.837-.134-.279.142-.434.447-.386.756l1.436 9.676-8.653 4.409c-.279.142-.434.448-.386.756.05.308.291.55.6.6l9.592 1.519 1.52 9.592c.024.155.096.293.202.398.105.105.243.178.398.202.308.05.613-.106.756-.385l4.409-8.654 9.675 1.436c.309.049.614-.107.756-.386.142-.277.089-.616-.133-.837zM17.625 9.75c1.035 0 1.875-.84 1.875-1.875C19.5 6.839 18.66 6 17.626 6c-1.036 0-1.875.84-1.875 1.875 0 1.036.839 1.875 1.875 1.875zM31.876 36c-1.035 0-1.875.84-1.875 1.875 0 1.036.84 1.875 1.875 1.875 1.036 0 1.875-.84 1.875-1.875 0-1.036-.839-1.875-1.874-1.875zm6.375-10.5c-.828 0-1.5.671-1.5 1.5s.672 1.5 1.5 1.5c.83 0 1.5-.671 1.5-1.5s-.67-1.5-1.5-1.5zm-25.5-4.5c.83 0 1.5-.671 1.5-1.5s-.67-1.5-1.5-1.5c-.828 0-1.5.671-1.5 1.5s.672 1.5 1.5 1.5zm30-8.25c0 .829.672 1.5 1.5 1.5.83 0 1.5-.671 1.5-1.5s-.67-1.5-1.5-1.5c-.828 0-1.5.671-1.5 1.5z"/>
                </g>
            </g>
        </g>
    </g>
</svg>
