<svg xmlns="http://www.w3.org/2000/svg" width="36" height="36" viewBox="0 0 36 36">
    <g fill="none" fill-rule="evenodd">
        <g fill="#FCFCFC">
            <g>
                <path d="M18 1.5C8.887 1.5 1.5 8.887 1.5 18S8.887 34.5 18 34.5 34.5 27.113 34.5 18c0-4.376-1.738-8.573-4.833-11.667C26.573 3.238 22.377 1.5 18 1.5zm-1.5 8.625h3v9.75h-3v-9.75zm1.5 15.75c-1.036 0-1.875-.84-1.875-1.875 0-1.036.84-1.875 1.875-1.875 1.036 0 1.875.84 1.875 1.875 0 1.036-.84 1.875-1.875 1.875z" transform="translate(-612 -373) translate(611.998 373)"/>
            </g>
        </g>
    </g>
</svg>
