<svg xmlns="http://www.w3.org/2000/svg" width="85" height="85" viewBox="0 0 85 85">
    <g fill="none" fill-rule="evenodd">
        <g>
            <g transform="translate(-24 -12) translate(24 12)">
                <path d="M0 0L85.001 0 85.001 85 0 85z"/>
                <path fill="#A6A6AE" fill-rule="nonzero" d="M24.89 33.907c-.198 0-.397-.028-.595-.09-1.05-.327-1.636-1.444-1.31-2.494l3.024-9.701c.433-1.717 2.122-2.988 4.078-2.988h6.436c1.101 0 1.993.892 1.993 1.992s-.892 1.992-1.993 1.992h-6.436c-.148 0-.235.07-.247.089l-3.05 9.8c-.265.854-1.052 1.4-1.9 1.4z"/>
                <path fill="#D0D0D0" fill-rule="nonzero" d="M41.018 28.647L63.83 28.647 63.83 32.631 41.018 32.631z" transform="rotate(-72.103 52.424 30.639)"/>
                <circle cx="66.269" cy="53.068" r="14.098" fill="#DADAE2" fill-rule="nonzero"/>
                <path fill="#7C7C7C" fill-rule="nonzero" d="M66.27 40.808c6.76 0 12.26 5.5 12.26 12.26s-5.5 12.26-12.26 12.26-12.26-5.5-12.26-12.26 5.5-12.26 12.26-12.26zm.138-3.62c-8.802 0-16.075 7.077-16.075 15.88s7.136 15.937 15.938 15.937c8.801 0 15.937-7.136 15.937-15.937 0-8.802-6.999-15.88-15.8-15.88z"/>
                <circle cx="18.513" cy="53.068" r="14.098" fill="#DADAE2" fill-rule="nonzero"/>
                <path fill="#7C7C7C" fill-rule="nonzero" d="M18.514 40.808c6.76 0 12.26 5.5 12.26 12.26s-5.5 12.26-12.26 12.26-12.26-5.5-12.26-12.26 5.5-12.26 12.26-12.26zm0-3.62c-8.801 0-15.937 7.077-15.937 15.88s7.136 15.937 15.937 15.937c8.802 0 15.938-7.136 15.938-15.937 0-8.802-7.136-15.88-15.938-15.88z"/>
                <path fill="#529AD6" fill-rule="nonzero" d="M68.47 51.335L55.803 31.433c-.374-.532-.982-.848-1.63-.848H24.946c-.279 0-.54.076-.786.184-.681.123-1.28.59-1.526 1.29-1.77 5.02-3.437 12.472-6.204 20.476-.36 1.04.193 2.176 1.231 2.534.217.075.436.11.651.11.826 0 1.598-.519 1.882-1.342 2.759-7.98 4.139-14.627 5.293-17.894l19.385 17.943c.375.376.882.586 1.41.586h20.555c.743 0 1.425-.413 1.767-1.075.348-.66.294-1.454-.134-2.062zM49.041 34.57l-4.319 13.559-14.976-13.56h19.295zm-.96 15.957l5.16-15.814 9.765 15.814H48.081z"/>
                <path fill="#7C7C7C" fill-rule="nonzero" d="M46.134 20.164c-.978.475-.715 2.352.33 2.352h12.912c1.675 0 3.033-1.759 3.033-3.928 0-1.751-1.263-3.044-2.578-2.639l-13.697 4.215z"/>
            </g>
        </g>
    </g>
</svg>
