<svg xmlns="http://www.w3.org/2000/svg" width="48" height="48" viewBox="0 0 48 48">
    <defs>
        <filter id="dfnv1leyya">
            <feColorMatrix in="SourceGraphic" values="0 0 0 0 0.988235 0 0 0 0 0.988235 0 0 0 0 0.988235 0 0 0 1.000000 0"/>
        </filter>
    </defs>
    <g fill="none" fill-rule="evenodd">
        <g>
            <g>
                <path d="M0 0H48V48H0z" transform="translate(-105 -651) translate(105 651)"/>
                <g filter="url(#dfnv1leyya)" opacity=".6" transform="translate(-105 -651) translate(105 651)">
                    <g fill="#000" fill-rule="nonzero">
                        <path d="M36.358 23.46l-5.6-22.4C30.602.437 30.042 0 29.4 0H7c-.642 0-1.202.437-1.358 1.06l-5.6 22.4c-.105.418-.011.861.254 1.201.266.34.673.539 1.104.539h15.4v14h-4.2c-.773 0-1.4.627-1.4 1.4 0 .773.627 1.4 1.4 1.4h11.2c.773 0 1.4-.627 1.4-1.4 0-.773-.627-1.4-1.4-1.4h-4.2v-14H35c.431 0 .838-.199 1.104-.539.265-.34.359-.783.254-1.201zM19.6 22.4H3.193l4.9-19.6h20.214l4.9 19.6H19.6z" transform="translate(6 3)"/>
                        <path d="M13.25 13.25c-.531.549-.523 1.422.017 1.962s1.413.548 1.962.017c1.643-1.637 4.3-1.637 5.942 0 .55.53 1.422.523 1.962-.017s.548-1.413.017-1.962c-2.736-2.729-7.164-2.729-9.9 0z" transform="translate(6 3)"/>
                        <path d="M18.2 5.6c-3.344-.01-6.552 1.32-8.91 3.69-.53.55-.523 1.423.017 1.963s1.414.548 1.963.017C13.108 9.432 15.6 8.4 18.2 8.4c2.6 0 5.092 1.032 6.93 2.87.55.53 1.422.523 1.963-.017.54-.54.547-1.413.017-1.963-2.358-2.37-5.566-3.7-8.91-3.69zM17.21 17.21c-.4.4-.52 1.003-.303 1.526.216.523.727.864 1.293.864s1.077-.34 1.293-.864c.217-.523.097-1.125-.303-1.526-.547-.546-1.433-.546-1.98 0z" transform="translate(6 3)"/>
                    </g>
                </g>
            </g>
        </g>
    </g>
</svg>
