<svg xmlns="http://www.w3.org/2000/svg" width="48" height="48" viewBox="0 0 48 48">
    <g fill="none" fill-rule="evenodd" opacity=".6">
        <g>
            <g>
                <path d="M0 0H48V48H0z" transform="translate(-105 -749) translate(105 749)"/>
                <path fill="#FFF" d="M24 12c9.419 0 14.859 7.389 18.432 12.26l.568.731-.568.731c-3.573 4.872-9.013 12.26-18.432 12.26-9.419 0-14.859-7.388-18.432-12.26L5 24.992l.568-.731C9.141 19.389 14.581 12 24 12zm0 2.436c-7.308 0-11.774 4.872-15.915 10.555C12.226 30.675 16.692 35.547 24 35.547s11.774-4.872 15.915-10.556C35.774 19.308 31.308 14.436 24 14.436zm0 2.436c4.466 0 8.12 3.654 8.12 8.12 0 4.465-3.654 8.12-8.12 8.12-4.466 0-8.12-3.655-8.12-8.12 0-4.466 3.654-8.12 8.12-8.12zm0 2.436c-3.167 0-5.684 2.517-5.684 5.683 0 3.167 2.517 5.684 5.684 5.684 3.167 0 5.684-2.517 5.684-5.684 0-3.166-2.517-5.683-5.684-5.683z" transform="translate(-105 -749) translate(105 749)"/>
            </g>
        </g>
    </g>
</svg>
