<svg xmlns="http://www.w3.org/2000/svg" width="48" height="48" viewBox="0 0 48 48">
    <defs>
        <filter id="p61zh54y8a">
            <feColorMatrix in="SourceGraphic" values="0 0 0 0 0.988235 0 0 0 0 0.988235 0 0 0 0 0.988235 0 0 0 1.000000 0"/>
        </filter>
    </defs>
    <g fill="none" fill-rule="evenodd">
        <g>
            <g>
                <path d="M0 0H48V48H0z" transform="translate(-103 -455) translate(103 455)"/>
                <g filter="url(#p61zh54y8a)" opacity=".6" transform="translate(-103 -455) translate(103 455)">
                    <g>
                        <path fill="#000" fill-rule="nonzero" d="M20.964 10.482C20.964 4.692 16.271 0 10.482 0 4.692 0 0 4.693 0 10.482c0 5.79 4.693 10.482 10.482 10.482 5.787-.006 10.476-4.696 10.482-10.482zm-18.523 0c0-4.441 3.6-8.042 8.041-8.042 4.442 0 8.042 3.601 8.042 8.042 0 4.442-3.6 8.042-8.042 8.042-4.44-.005-8.037-3.603-8.041-8.042zm8.798.957L7.586 14.33c-.342.276-.805.347-1.214.187-.408-.16-.699-.528-.761-.963-.062-.434.113-.869.46-1.138l3.191-2.524V6.66c0-.674.546-1.22 1.22-1.22.674 0 1.22.546 1.22 1.22v3.822c0 .373-.17.725-.463.957zM22.156 1.423c0-.674.546-1.22 1.22-1.22h15.4c.673 0 1.22.546 1.22 1.22 0 .674-.547 1.22-1.22 1.22h-15.4c-.674 0-1.22-.546-1.22-1.22zm17.84 8.533c0 .674-.547 1.22-1.22 1.22H26.24c-.674 0-1.22-.546-1.22-1.22 0-.674.546-1.22 1.22-1.22h12.535c.674 0 1.22.546 1.22 1.22zm0 8.526c0 .674-.547 1.22-1.22 1.22H24.066c-.673 0-1.22-.546-1.22-1.22 0-.674.547-1.22 1.22-1.22h14.708c.674 0 1.22.546 1.22 1.22zM40 27.007c0 .674-.546 1.22-1.22 1.22H5.358c-.673 0-1.22-.546-1.22-1.22 0-.674.547-1.22 1.22-1.22H38.78c.674 0 1.22.546 1.22 1.22z" transform="translate(4 10)"/>
                    </g>
                </g>
            </g>
        </g>
    </g>
</svg>
