<?xml version="1.0" encoding="UTF-8" standalone="no"?>
<!DOCTYPE svg PUBLIC "-//W3C//DTD SVG 1.1//EN" "http://www.w3.org/Graphics/SVG/1.1/DTD/svg11.dtd">
<svg width="100%" height="100%" viewBox="0 0 31 38" version="1.1" xmlns="http://www.w3.org/2000/svg" xmlns:xlink="http://www.w3.org/1999/xlink" xml:space="preserve" xmlns:serif="http://www.serif.com/" style="fill-rule:evenodd;clip-rule:evenodd;stroke-linejoin:round;stroke-miterlimit:2;">
    <rect id="Artboard1" x="0" y="0" width="30.6" height="37.21" style="fill:none;"/>
    <clipPath id="_clip1">
        <rect id="Artboard11" serif:id="Artboard1" x="0" y="0" width="30.6" height="37.21"/>
    </clipPath>
    <g clip-path="url(#_clip1)">
        <g id="Marke">
            <g transform="matrix(1,0,0,1,-14.88,-14.88)">
                <rect x="14.88" y="32" width="7.54" height="7.53" style="fill:rgb(226,0,116);fill-rule:nonzero;"/>
            </g>
            <g transform="matrix(1,0,0,1,-14.88,-14.88)">
                <rect x="37.86" y="32" width="7.53" height="7.53" style="fill:rgb(226,0,116);fill-rule:nonzero;"/>
            </g>
            <g transform="matrix(1,0,0,1,-14.88,-14.88)">
                <path d="M45,14.88L15.25,14.88L14.88,28L16.88,28.34C17.24,24.47 18.26,21.6 19.88,19.73C21.749,17.717 24.394,16.598 27.14,16.66L27.14,44.13C27.14,46.53 26.8,48.13 26.14,48.8C25.302,49.514 24.241,49.914 23.14,49.93C22.68,50 22,50 21,50L21,52.1L39.32,52.1L39.32,50C38.32,50 37.59,50 37.17,49.94C36.069,49.924 35.008,49.524 34.17,48.81C33.47,48.1 33.17,46.54 33.17,44.14L33.17,16.67C35.916,16.608 38.561,17.727 40.43,19.74C42.09,21.613 43.107,24.483 43.48,28.35L45.48,28.01L45,14.88Z" style="fill:rgb(226,0,116);fill-rule:nonzero;"/>
            </g>
        </g>
    </g>
</svg>
