<svg xmlns="http://www.w3.org/2000/svg" width="64.001" height="64">
  <path fill="none" d="M0 0H64.001V64H0z"/>
  <linearGradient id="a" gradientUnits="userSpaceOnUse" x1="32.014" y1="76.6597" x2="32.014" y2="-9.0505">
    <stop offset="0" stop-color="#dadae2"/>
    <stop offset="1" stop-color="#e9e9ee"/>
  </linearGradient>
  <path fill="url(#a)" d="M55.014,58c0,1.1-0.9,2-2,2h-42c-1.1,0-2-0.9-2-2V6c0-1.1,0.9-2,2-2h42c1.1,0,2,0.9,2,2V58z"/>
  <linearGradient id="b" gradientUnits="userSpaceOnUse" x1="32.0141" y1="53" x2="32.0141" y2="17">
    <stop offset=".0005" stop-color="#ffea99"/>
    <stop offset=".9958" stop-color="#fff"/>
  </linearGradient>
  <path fill="url(#b)" d="M9.014,17v36h46V17H9.014z"/>
  <path fill="#FFF" d="M44.001,11.5c0,1.381-1.119,2.5-2.5,2.5c-1.381,0-2.5-1.119-2.5-2.5c0-1.381,1.119-2.5,2.5-2.5 C42.882,9,44.001,10.119,44.001,11.5z"/>
  <radialGradient id="c" cx="49.501" cy="11.5" r="2.5" gradientUnits="userSpaceOnUse">
    <stop offset="0" stop-color="#8bb25f"/>
    <stop offset="1" stop-color="#7ba84a"/>
  </radialGradient>
  <path fill="url(#c)" d="M52.001,11.5c0,1.381-1.119,2.5-2.5,2.5c-1.381,0-2.5-1.119-2.5-2.5c0-1.381,1.119-2.5,2.5-2.5 C50.882,9,52.001,10.119,52.001,11.5z"/>
  <linearGradient id="d" gradientUnits="userSpaceOnUse" x1="32.014" y1="53" x2="32.014" y2="17">
    <stop offset="0" stop-color="#55565a"/>
    <stop offset="1" stop-color="#a6a6ae"/>
  </linearGradient>
  <path fill="url(#d)" d="M9.014,17v36h46V17H9.014z M52.014,48c0,1.1-0.9,2-2,2h-36c-1.1,0-2-0.9-2-2V22c0-1.1,0.9-2,2-2 h36c1.1,0,2,0.9,2,2V48z"/>
  <g>
    <path opacity=".8" fill="#948983" d="M45.001 42L19.001 42 16.001 33 48.001 33z"/>
  </g>
  <path opacity=".3" fill="#4B4B4B" d="M14.014 30.019H50.013999999999996V31H14.014zM14.014 37H50.013999999999996V38H14.014zM14.014 44H50.013999999999996V45H14.014z"/>
  <linearGradient id="e" gradientUnits="userSpaceOnUse" x1="6.0252" y1="39.2638" x2="35.2887" y2="11.514">
    <stop offset="0" stop-color="#fff"/>
    <stop offset="1" stop-color="#fff" stop-opacity="0"/>
  </linearGradient>
  <path opacity=".25" fill="url(#e)" d="M9.014 17L9.014 53 12.029 53 48.001 17z"/>
  <path fill="#DADAE2" d="M14.023 22H50.022999999999996V25H14.023z"/>
</svg>
