<svg xmlns="http://www.w3.org/2000/svg" width="64.001" height="64">
  <path fill="none" d="M0 0H64.001V64H0z"/>
  <path fill="none" d="M0.002 0H64.002V64H0.002z"/>
  <path fill="none" d="M0.001 64L0.001 0 64.002 0 64.002 64"/>
  <g>
    <path class='icon' d="M61.502,56.063L50.663,13.935c-0.274-1.065-1.398-1.937-2.498-1.937H15.91c-1.1,0-2.226,0.871-2.501,1.936 L2.5,56.064C2.224,57.129,2.899,58,3.999,58h56.002C61.101,58,61.777,57.128,61.502,56.063z M30.41,16h3.182l0.21,6H30.2L30.41,16z M30.001,26h4l0.301,9h-4.601L30.001,26z M29.001,54l0.631-15h4.751l0.618,15H29.001z"/>
  </g>
</svg>
