<svg xmlns="http://www.w3.org/2000/svg" width="91" height="81" viewBox="0 0 91 81">
    <defs>
        <linearGradient id="dg3dyu5yda" x1="50%" x2="50%" y1="100.742%" y2=".743%">
            <stop offset="0%" stop-color="#706259"/>
            <stop offset="100%" stop-color="#948983"/>
        </linearGradient>
    </defs>
    <g fill="none" fill-rule="evenodd">
        <g fill-rule="nonzero">
            <g transform="translate(-25 -24) matrix(-1 0 0 1 116 24)">
                <path fill="url(#dg3dyu5yda)" d="M42.428 57L89 47.406c-2.05-13.498-3.284-22.7-4.491-26.366C80.326 8.346 70.187 0 62.962 0H42.42C41 0 39.683.737 38.934 1.95l-6.157 9.792c-.749 1.213-2.068 1.95-3.485 1.95H3.077c-1.926 0-3.358 1.75-3.03 3.663 1.107 6.452 5.263 22.257 20.83 22.257h21.551V57z"/>
                <path fill="#FFB356" d="M43 69.847V56.739L89.33 47 91 59.491c0 1.933-1.63 3.575-3.248 3.98l-40.996 9.437c-1.934.487-3.762-1.02-3.756-3.061z"/>
                <circle cx="50.5" cy="62.5" r="4.5" fill="#FFF"/>
                <path fill="#4B4B4B" d="M88 41l-.43-2.988H73.943c-5.736 0-10.405-4.613-10.405-10.283V15.494c0-.826-.678-1.494-1.512-1.494-.835 0-1.512.668-1.512 1.494V27.73C60.513 35.046 66.536 41 73.942 41H88zM51.848 18.962c0 1.846-1.514 3.341-3.38 3.341-1.868 0-3.382-1.495-3.382-3.34 0-1.846 1.514-3.342 3.381-3.342 1.866 0 3.38 1.496 3.38 3.341zM.047 17.677c.231 1.323.599 3.06 1.173 4.977.043 0 .082.012.126.012 4.103 0 7.43-3.287 7.43-7.342 0-.424-.057-.835-.128-1.24H3.075c-1.924.001-3.356 1.72-3.028 3.593z"/>
                <path fill="#53BAF2" d="M31.378 75c-.415 0-.83-.149-1.146-.444C27.502 72.004 26 68.61 26 65c0-3.609 1.503-7.002 4.232-9.555.634-.593 1.659-.593 2.292 0 .634.593.634 1.55 0 2.144C30.407 59.57 29.242 62.2 29.242 65c0 2.8 1.165 5.431 3.282 7.412.634.591.634 1.55.002 2.144-.318.295-.733.444-1.148.444z"/>
                <path fill="#53BAF2" d="M25.5 81c-.383 0-.767-.147-1.06-.44C20.289 76.404 18 70.878 18 65c0-5.88 2.288-11.405 6.44-15.56.587-.587 1.536-.587 2.12 0 .587.587.587 1.535 0 2.122-3.587 3.59-5.562 8.36-5.562 13.437 0 5.078 1.975 9.85 5.562 13.44.587.586.587 1.535 0 2.121-.292.293-.676.44-1.06.44z"/>
            </g>
        </g>
    </g>
</svg>
