<svg xmlns="http://www.w3.org/2000/svg" width="64.001" height="64">
  <path fill="none" d="M0 0H64.001V64H0z"/>
  <path fill="#FFD329" d="M20.248,17.678c0-0.033-0.005-0.066-0.005-0.099c0.012-3.093,2.529-5.59,5.622-5.578 c3.093,0.012,5.59,2.529,5.578,5.622c0,0.034-0.005,0.066-0.005,0.099c1.48,0.413,2.569,1.76,2.562,3.371 c-0.008,1.933-1.581,3.494-3.514,3.486c-0.463-0.002-0.902-0.098-1.306-0.263c-0.411,1.483-1.76,2.576-3.373,2.569 c-1.613-0.006-2.954-1.109-3.353-2.595c-0.405,0.162-0.845,0.255-1.308,0.253c-1.933-0.008-3.494-1.581-3.486-3.514 C17.666,19.418,18.765,18.079,20.248,17.678z"/>
  <linearGradient id="a" gradientUnits="userSpaceOnUse" x1="34.4229" y1="18.8525" x2="34.4229" y2="4">
    <stop offset="0" stop-color="#ffe894"/>
    <stop offset="1" stop-color="#fff1bd"/>
  </linearGradient>
  <path fill="url(#a)" d="M36.611,17.154c-0.023,0.024-0.043,0.05-0.067,0.074c-2.195,2.178-5.741,2.165-7.92-0.031 s-2.165-5.741,0.031-7.92c0.024-0.024,0.05-0.043,0.074-0.066c-0.754-1.339-0.572-3.061,0.572-4.195 c1.372-1.362,3.588-1.353,4.95,0.019c0.326,0.329,0.569,0.708,0.738,1.11c1.339-0.758,3.066-0.577,4.202,0.568 c1.136,1.145,1.304,2.873,0.536,4.206c0.401,0.172,0.778,0.418,1.104,0.746c1.362,1.372,1.353,3.588-0.019,4.95 C39.668,17.75,37.944,17.918,36.611,17.154z"/>
  <linearGradient id="b" gradientUnits="userSpaceOnUse" x1="19.8296" y1="25.8846" x2="19.8296" y2="11">
    <stop offset="0" stop-color="#ffe894"/>
    <stop offset="1" stop-color="#fff1bd"/>
  </linearGradient>
  <path fill="url(#b)" d="M25.425,16.699c0.001-0.033,0.005-0.066,0.005-0.099c0-3.093-2.507-5.6-5.6-5.6s-5.6,2.507-5.6,5.6 c0,0.034,0.004,0.066,0.005,0.099c-1.481,0.408-2.575,1.75-2.575,3.361c0,1.933,1.567,3.5,3.5,3.5 c0.463,0,0.903-0.095,1.307-0.258c0.405,1.485,1.75,2.582,3.363,2.582c1.613,0,2.958-1.098,3.363-2.582 c0.405,0.163,0.844,0.258,1.307,0.258c1.933,0,3.5-1.567,3.5-3.5C28,18.449,26.906,17.107,25.425,16.699z"/>
  <path fill="#FFDE5F" d="M49.765,16.699c0.001-0.033,0.005-0.066,0.005-0.099c0-3.093-2.507-5.6-5.6-5.6s-5.6,2.507-5.6,5.6 c0,0.034,0.004,0.066,0.005,0.099c-0.487,0.134-0.925,0.377-1.303,0.689c-0.881-1.922-2.813-3.264-5.067-3.273 c-3.093-0.012-5.61,2.485-5.622,5.578c0,0.034,0.004,0.066,0.005,0.099c-1.483,0.402-2.582,1.74-2.588,3.351 c-0.008,1.933,1.553,3.506,3.486,3.514c0.463,0.002,0.903-0.091,1.308-0.253c0.399,1.486,1.74,2.589,3.353,2.595 c1.613,0.006,2.962-1.086,3.373-2.569c0.404,0.165,0.843,0.261,1.306,0.263c1.85,0.007,3.354-1.426,3.488-3.243 c0.168-0.041,0.335-0.085,0.492-0.148c0.405,1.485,1.75,2.582,3.363,2.582s2.958-1.098,3.363-2.582 c0.405,0.163,0.844,0.258,1.307,0.258c1.933,0,3.5-1.567,3.5-3.5C52.341,18.449,51.247,17.107,49.765,16.699z"/>
  <linearGradient id="c" gradientUnits="userSpaceOnUse" x1="32" y1="60" x2="32" y2="22">
    <stop offset="0" stop-color="#fffaea"/>
    <stop offset="1" stop-color="#fff"/>
  </linearGradient>
  <path fill="url(#c)" d="M40,22c-2.209,0-4,1.791-4,4l-1,34h6l3-34C44,23.791,42.209,22,40,22z M24,22c-2.209,0-4,1.791-4,4 l3,34h6l-1-34C28,23.791,26.209,22,24,22z"/>
  <path fill="#F05C51" d="M32,22c-2.209,0-4,1.791-4,4l1,34h6l1-34C36,23.791,34.209,22,32,22z M48,22c-2.209,0-4,1.791-4,4l-3,34 h4.273c0.992,0,1.834-0.727,1.979-1.709L52,26C52,23.791,50.209,22,48,22z M16,22c-2.209,0-4,1.791-4,4l4.749,32.291 C16.893,59.273,17.735,60,18.727,60H23l-3-34C20,23.791,18.209,22,16,22z"/>
  <path opacity=".2" fill="#706259" d="M47.253,58.291L47.443,57H16.561l0.19,1.291C16.895,59.273,17.737,60,18.729,60h26.545 C46.267,60,47.109,59.273,47.253,58.291z"/>
  <path fill="#FFEB9F" d="M45.714,52.223c-0.024,0.023-0.05,0.043-0.074,0.067c-2.187,2.187-2.187,5.733,0,7.92 c2.187,2.187,5.733,2.187,7.92,0c0.024-0.024,0.044-0.05,0.067-0.074c1.336,0.759,3.059,0.584,4.198-0.555 c1.367-1.367,1.367-3.583,0-4.95c-0.327-0.327-0.705-0.571-1.107-0.742c0.763-1.336,0.589-3.063-0.552-4.204 c-1.141-1.141-2.868-1.315-4.204-0.552c-0.171-0.402-0.415-0.779-0.742-1.107c-1.367-1.367-3.583-1.367-4.95,0 C45.13,49.164,44.955,50.887,45.714,52.223z"/>
</svg>
