<svg xmlns="http://www.w3.org/2000/svg" width="64.001" height="64">
  <path fill="none" d="M0 0H64.001V64H0z"/>
  <path fill="#FFEDA9" d="M31.923 16.45L39.907 1.918 39.71 18.494 53.889 9.902 45.431 24.157 62.003 23.807 47.55 31.927 62.083 39.909 45.505 39.714 54.095 53.889 39.837 45.428 40.192 62.002 32.076 47.547 24.091 62.082 24.289 45.506 10.111 54.1 18.571 39.838 1.996 40.192 16.446 32.075 1.918 24.088 18.496 24.288 9.9 10.11 24.159 18.567 23.804 1.997z"/>
  <linearGradient id="a" gradientUnits="userSpaceOnUse" x1="-47.802" y1="515.6547" x2="-42.0667" y2="473.4013" gradientTransform="rotate(-7.736 -3429.6044 -306.4617)">
    <stop offset="0" stop-color="#ffd329"/>
    <stop offset="1" stop-color="#ffde5f"/>
  </linearGradient>
  <path fill="url(#a)" d="M34.858,53.125c-11.653,1.582-22.417-6.606-23.999-18.254c-1.58-11.646,6.61-22.414,18.266-23.996 c11.637-1.578,22.433,6.609,24.014,18.256C54.719,40.781,46.497,51.546,34.858,53.125L34.858,53.125z"/>
</svg>
