<svg xmlns="http://www.w3.org/2000/svg" width="64" height="64">
  <path fill="none" d="M0 0H64V64H0z"/>
  <path fill="#A6A6AE" d="M3,28l0-1.9c0-1,0.8-1.2,1.8-1.3c0.7-0.1,1.6-0.2,2.4-0.4c4.4-1,12-6.4,21.6-6.4c9.3,0,12.9,5.5,14.5,6 c0,0,5.1,0.9,9.9,2.1c4.6,1.2,8.7,3.8,8.7,5.7V40c0,1.1-0.9,2-2,2H4.9c-0.8,0-1.5-0.5-1.8-1.2C2.3,38.9,1,31,3,28z"/>
  <path fill="#808083" d="M2.5,39c0.2,0.6,0.4,1.3,0.6,1.8c0.3,0.7,1,1.2,1.8,1.2H60c1.1,0,2-0.9,2-2v-1H2.5z"/>
  <circle fill="#262626" cx="15" cy="41" r="6"/>
  <circle fill="#4B4B4B" cx="15" cy="41" r="3.5"/>
  <circle fill="#262626" cx="51" cy="41" r="6"/>
  <circle fill="#4B4B4B" cx="51" cy="41" r="3.5"/>
  <path fill="#FFF" d="M31,28v-2h-4v-2h-3.1c-2.4,0-4.4,1.7-4.9,4H3c-0.4,0.5-0.6,1.2-0.8,2H19c0.5,2.3,2.5,4,4.9,4H27v-2h4v-2 h-4v-2H31z"/>
</svg>
