<svg xmlns="http://www.w3.org/2000/svg" width="64.001" height="64">
  <path fill="none" d="M0 0H64.001V64H0z"/>
  <linearGradient id="a" gradientUnits="userSpaceOnUse" x1="32.001" y1="76.6597" x2="32.001" y2="-9.0505">
    <stop offset="0" stop-color="#dadae2"/>
    <stop offset="1" stop-color="#e9e9ee"/>
  </linearGradient>
  <path fill="url(#a)" d="M55.001,58c0,1.1-0.9,2-2,2h-42c-1.1,0-2-0.9-2-2V6c0-1.1,0.9-2,2-2h42c1.1,0,2,0.9,2,2V58z"/>
  <circle fill="#FFF" cx="32.001" cy="9" r="3"/>
  <path fill="#7C7C7C" d="M32,19c-8.822,0-15.999,7.178-15.999,16c0,8.82,7.177,15.995,15.999,15.995 c8.823,0,16.001-7.175,16.001-15.995C48.001,26.178,40.823,19,32,19z"/>
  <path opacity=".6" fill="#262626" d="M32.002,47c-6.633,0-12.001-5.374-12.001-12.001s5.368-12.001,12.001-12.001 c6.635,0,11.999,5.374,11.999,12.001C44.001,41.626,38.637,47,32.002,47z"/>
  <path opacity=".4" fill="#A6A6AE" d="M24.01 14.001L24.01 4.024 22.01 4.024 22.01 14.001 9.01 14.001 9.01 16.001 55.001 16.001 55.001 14.001z"/>
  <linearGradient id="b" gradientUnits="userSpaceOnUse" x1="43.0096" y1="9.0013" x2="51.0096" y2="9.0013">
    <stop offset="0" stop-color="#7ba84a"/>
    <stop offset=".5" stop-color="#8bb25f"/>
    <stop offset="1" stop-color="#7ba84a"/>
  </linearGradient>
  <path fill="url(#b)" d="M43.01 7.001H51.01V11.001000000000001H43.01z"/>
  <g>
    <path opacity=".9" fill="#99D9F2" d="M38.22,38.124c-2.694,0-4.718-1.32-6.143-2.906c-1.566-1.744-3.449-2.906-6.143-2.906 c-2.544,0-4.745,1.063-5.93,2.63c0,0.019-0.003,0.038-0.003,0.057C20.001,41.626,25.369,47,32.002,47 c6.395,0,11.594-4.996,11.963-11.291C42.746,37.154,40.642,38.124,38.22,38.124z"/>
  </g>
  <linearGradient id="c" gradientUnits="userSpaceOnUse" x1="26.4285" y1="-3003.8062" x2="27.097" y2="-2983.0828" gradientTransform="matrix(1 0 0 -1 0 -2958.126)">
    <stop offset="0" stop-color="#fff" stop-opacity=".15"/>
    <stop offset=".9963" stop-color="#fff" stop-opacity=".25"/>
  </linearGradient>
  <path fill="url(#c)" d="M23.021,34.996c0-4.34,3.075-7.961,7.17-8.798c0.585-0.12-3.611,2.784-3.611,8.798 c0,6.014,4.196,8.918,3.611,8.798C26.096,42.957,23.021,39.336,23.021,34.996z"/>
</svg>
