<svg xmlns="http://www.w3.org/2000/svg" width="64.001" height="64">
  <path fill="none" d="M0 0H64.001V64H0z"/>
  <path fill="#529AD6" d="M16.965,41.661l4.096,4.4c2.884-2.663,6.723-4.306,10.949-4.306c4.222,0,8.059,1.64,10.942,4.299 l4.098-4.398c-3.955-3.659-9.24-5.901-15.04-5.901C26.207,35.755,20.921,37.999,16.965,41.661z M9.474,33.616l4.086,4.388 c4.849-4.495,11.333-7.249,18.45-7.249c7.116,0,13.597,2.753,18.446,7.245l4.087-4.387c-5.921-5.492-13.84-8.858-22.534-8.858 C23.315,24.755,15.396,28.122,9.474,33.616z M32.01,13.755c-11.587,0-22.14,4.491-30.027,11.816l4.086,4.388 c6.815-6.326,15.932-10.204,25.941-10.204c10.009,0,19.125,3.878,25.94,10.203l4.087-4.387 C54.15,18.246,43.597,13.755,32.01,13.755z M27.837,58h8.346v-8.35h-8.346V58z"/>
</svg>
